<svg width="200" height="55" fill="none" xmlns="http://www.w3.org/2000/svg"><path fill-rule="evenodd" clip-rule="evenodd" d="M58.828 40.156v-24.61h3.164l15.04 19.806V15.547h3.007v24.61h-3.164l-15.04-20v20h-3.007zM104.531 39.18a18.26 18.26 0 0 1-6.406 1.133c-8.906 0-13.36-4.258-13.36-12.813 0-8.086 4.297-12.148 12.891-12.148 2.461 0 4.766.351 6.875 1.015v2.735a17.876 17.876 0 0 0-6.523-1.211c-6.719 0-10.078 3.203-10.078 9.53 0 6.837 3.32 10.235 9.922 10.235 1.054 0 2.226-.156 3.515-.43v-8.242h3.164V39.18zM109.609 30.664V15.547h3.164v15.117c0 4.727 2.344 7.11 7.071 7.11 4.687 0 7.07-2.383 7.07-7.11V15.547h3.164v15.117c0 6.445-3.398 9.688-10.234 9.688s-10.235-3.243-10.235-9.688zM138.906 15.547v22.031h12.891v2.578h-16.055v-24.61h3.164zM156.367 40.156h-3.32l12.226-27.851L177.5 40.156h-3.516l-3.164-7.734h-8.125l.86-2.578h6.211l-4.61-11.133-8.789 21.445zM180.898 40.156v-24.61h10.508c4.688 0 7.031 1.954 7.031 5.9 0 3.202-2.304 5.585-6.875 7.109L200 40.156h-4.18l-7.812-11.054v-2.07c4.687-.743 7.07-2.54 7.07-5.43 0-2.266-1.289-3.399-3.906-3.399h-7.031v21.953h-3.243zM0 8.984L25.195 0l25.86 8.828-4.18 33.32-21.68 11.993L3.867 42.305 0 8.985z" fill="#050505"/><path fill-rule="evenodd" clip-rule="evenodd" d="M51.055 8.828L25.195 0v54.14l21.68-11.992 4.18-33.32z" fill="#050505"/><path fill-rule="evenodd" clip-rule="evenodd" d="M25.234 6.328L9.531 41.25l5.86-.117 3.164-7.89h14.023l3.438 7.968 5.586.117-16.368-35zm.04 11.211l5.312 11.094h-9.961l4.648-11.094z" fill="#fff"/></svg>