<svg width="128" height="112" fill="none" xmlns="http://www.w3.org/2000/svg"><path d="M64 0c-5.514 0-10 4.486-10 10s4.486 10 10 10 10-4.486 10-10S69.514 0 64 0zm0 4c3.308 0 6 2.692 6 6s-2.692 6-6 6-6-2.692-6-6 2.692-6 6-6zM51.914 22a13.986 13.986 0 0 0-12.871 8.484L27.52 57.375A7.625 7.625 0 0 0 26.918 60H16V50a2 2 0 1 0-4 0v10H8V50a2 2 0 1 0-4 0v10H2a2 2 0 1 0 0 4h2v10a2 2 0 1 0 4 0V64h4v10a2 2 0 1 0 4 0V64h11.832c.105.194.206.388.328.574A7.613 7.613 0 0 0 34.527 68a7.574 7.574 0 0 0 6.692-4h5.574l-5.738 38.707a8.098 8.098 0 0 0 1.883 6.484c1.541 1.786 3.777 2.809 6.28 2.809 3.713 0 6.993-2.485 7.981-6.043l6.797-24.473 6.816 24.614c.963 3.476 4.155 5.902 7.915 5.902a8.306 8.306 0 0 0 6.3-2.883 8.232 8.232 0 0 0 1.907-6.605C85.19 90.859 82.524 72.861 81.21 64h5.57a7.571 7.571 0 0 0 6.692 4 7.613 7.613 0 0 0 6.367-3.426c.122-.186.223-.38.328-.574H112v10a2 2 0 1 0 4 0V64h4v10a2 2 0 1 0 4 0V64h2a2 2 0 1 0 0-4h-2V50a2 2 0 1 0-4 0v10h-4V50a2 2 0 1 0-4 0v10h-10.918a7.62 7.62 0 0 0-.602-2.625l-11.523-26.89A13.981 13.981 0 0 0 76.09 22H51.914zm0 4h24.172a9.994 9.994 0 0 1 9.195 6.059l11.524 26.894a3.562 3.562 0 0 1-.309 3.418A3.566 3.566 0 0 1 93.473 64a3.6 3.6 0 0 1-3.239-2.004L79.79 41.106a2.005 2.005 0 0 0-2.25-1.055A2.005 2.005 0 0 0 76 42v14c0 .098.007.195.023.293L76.574 60H51.426l.55-3.707A1.79 1.79 0 0 0 52 56V42a2 2 0 0 0-3.79-.895L37.767 61.996A3.605 3.605 0 0 1 34.527 64a3.56 3.56 0 0 1-3.023-1.629 3.569 3.569 0 0 1-.305-3.422l11.524-26.89A9.988 9.988 0 0 1 51.914 26zM48 50.473v5.383L47.387 60h-4.149L48 50.473zm32 0L84.762 60h-4.145L80 55.852v-5.38zM50.836 64h26.332c1.143 7.711 3.975 26.824 5.813 39.105a4.264 4.264 0 0 1-.985 3.407c-.816.948-2.008 1.488-3.422 1.488a4.065 4.065 0 0 1-3.906-2.973L65.93 73.465A2.001 2.001 0 0 0 64 72c-.898 0-1.688.6-1.93 1.465l-8.722 31.422c-.51 1.832-2.21 3.113-4.278 3.113a4.101 4.101 0 0 1-3.105-1.426 4.097 4.097 0 0 1-.953-3.281L50.836 64z" fill="#fff"/></svg>