<svg width="128" height="128" fill="none" xmlns="http://www.w3.org/2000/svg"><path d="M68 0c-6.617 0-12 5.383-12 12s5.383 12 12 12 12-5.383 12-12S74.617 0 68 0zm0 4c4.414 0 8 3.586 8 8s-3.586 8-8 8-8-3.586-8-8 3.586-8 8-8zM56.727 24.75c-1.352.07-2.711.195-4.07.39L39.78 27c-3.422.5-6.398 2.781-7.758 5.96L26.82 45.103c-1.258 2.937-.164 6.382 2.578 8.023a6.425 6.425 0 0 0 4.86.719 6.32 6.32 0 0 0 3.922-2.922l5.14-8.563a2.022 2.022 0 0 1 1.602-.96l3.039-.18-4.89 19.14C42.757 60.15 42.405 60 42 60c-1.102 0-2 .898-2 2v4c0 .156.055.297.094.445l-4.657 8.735a6.03 6.03 0 0 1-4.859 3.164l-15 1.133c-2.297.164-4.297 1.406-5.515 3.343-1.227 1.961-1.446 4.305-.579 6.438a7.142 7.142 0 0 0 7.094 4.5l19.617-1.281c5.344-.336 10.203-3.016 13.367-7.32l7.282-9.915 9.398 11.219a17.99 17.99 0 0 1 3.281 5.937l2.82 8.563-62.984 6.297C4.016 107.781 0 112.242 0 117.602 0 123.344 4.656 128 10.398 128H114c5.523 0 10-4.477 10-10V68c2.203 0 4-1.797 4-4V48.82c0-1.28-.641-2.5-1.68-3.258a4.02 4.02 0 0 0-3.664-.5l-30 10.579A4.02 4.02 0 0 0 90 59.42V64c0 2.203 1.797 4 4 4h16.375l-2.937 29.438-19.094 1.921-.664-4.054c-.899-5.547-2.883-10.743-5.836-15.485l-8.086-12.914c.14-.273.242-.578.242-.906v-4c0-.938-.664-1.695-1.531-1.906l2.851-13.157 4.5 3.641c2.797 2.297 6.64 2.883 10.024 1.547l12.375-4.969a6.033 6.033 0 0 0 3.601-7.031l-.179-.727c-.797-3.218-4.079-5.156-7.282-4.375l-9.921 2.5a2.04 2.04 0 0 1-1.899-.546l-2.297-2.297a33.163 33.163 0 0 0-15.398-8.72 42.085 42.085 0 0 0-12.117-1.21zm.18 4c3.687-.172 7.359.188 10.968 1.094A29.066 29.066 0 0 1 81.398 37.5l2.32 2.32a6.032 6.032 0 0 0 5.68 1.578l9.946-2.476a1.967 1.967 0 0 1 2.414 1.437l.18.743a2.006 2.006 0 0 1-1.196 2.336l-12.398 4.96c-2 .797-4.32.461-6-.921L75.32 41.78a2.031 2.031 0 0 0-1.922-.343 2.04 2.04 0 0 0-1.296 1.46l-4.477 20.664a1.981 1.981 0 0 0 .25 1.5l10.563 16.876a37.45 37.45 0 0 1 5.304 14l.617 3.82-7.937.781-3.078-9.383a22.27 22.27 0 0 0-4.04-7.258l-11.046-13.18a1.969 1.969 0 0 0-1.54-.718h-.062a1.958 1.958 0 0 0-1.531.82l-8.781 11.985a14.01 14.01 0 0 1-10.407 5.672l-19.593 1.28a3.105 3.105 0 0 1-3.14-1.976 3.109 3.109 0 0 1 .233-2.844 3.168 3.168 0 0 1 2.438-1.476l15.023-1.14a9.936 9.936 0 0 0 8.063-5.258L46.5 62.937a2.91 2.91 0 0 0 .156-.437l5.485-21.523 4.82-.282c1.102-.054 1.937-1.015 1.883-2.117-.086-1.101-1.024-1.96-2.125-1.883l-12.04.703a5.966 5.966 0 0 0-4.78 2.922l-5.141 8.54c-.336.562-.86.945-1.477 1.1a2.345 2.345 0 0 1-1.82-.28c-1.023-.602-1.438-1.899-.984-3l5.218-12.14c.82-1.9 2.602-3.282 4.649-3.58l12.875-1.858a39.222 39.222 0 0 1 3.687-.352zM124 48.82V64H94v-4.578l17.859-6.32L120.656 50 124 48.82zM12 60c-1.102 0-2 .898-2 2v4c0 1.102.898 2 2 2 1.102 0 2-.898 2-2v-4c0-1.102-.898-2-2-2zm10 0c-1.102 0-2 .898-2 2v4c0 1.102.898 2 2 2 1.102 0 2-.898 2-2v-4c0-1.102-.898-2-2-2zm10 0c-1.102 0-2 .898-2 2v4c0 1.102.898 2 2 2 1.102 0 2-.898 2-2v-4c0-1.102-.898-2-2-2zm20 0c-1.102 0-2 .898-2 2v4c0 1.102.898 2 2 2 1.102 0 2-.898 2-2v-4c0-1.102-.898-2-2-2zm10 0c-1.102 0-2 .898-2 2v4c0 1.102.898 2 2 2 1.102 0 2-.898 2-2v-4c0-1.102-.898-2-2-2zm20 0c-1.102 0-2 .898-2 2v4c0 1.102.898 2 2 2 1.102 0 2-.898 2-2v-4c0-1.102-.898-2-2-2zm32.398 8H120v50c0 3.297-2.703 6-6 6H10.398C6.875 124 4 121.125 4 117.602a6.37 6.37 0 0 1 5.766-6.36l63.859-6.398 4.07-.406 7.305-.743 4-.39 18.039-1.805 4.063-.398.398-4.063L114.398 68zM10 116c-1.102 0-2 .898-2 2 0 1.102.898 2 2 2h88c1.102 0 2-.898 2-2 0-1.102-.898-2-2-2H10zm96 0c-1.102 0-2 .898-2 2 0 1.102.898 2 2 2h8c1.102 0 2-.898 2-2 0-1.102-.898-2-2-2h-8z" fill="#fff"/></svg>