<svg width="76" height="118" fill="none" xmlns="http://www.w3.org/2000/svg"><path d="M13.652 0C10.452 0 8 2.804 8 6c0 2.116 1.087 4.04 2.742 5.113l-8.37 11.723c-.008.01-.014.02-.02.031C.189 26.007 0 28.694 0 32.172v70.781c0 1.893.666 3.724 1.895 5.156l6.207 7.243a7.517 7.517 0 0 0 5.699 2.644h48.304c2.261 0 4.4-1.04 5.833-2.801l6.3-7.757.004-.004A7.94 7.94 0 0 0 76 102.438V32c0-3.375-.374-6.059-2.316-9.082a2.052 2.052 0 0 0-.055-.082l-8.371-11.723C66.913 10.041 68 8.116 68 6c0-3.196-2.451-6-5.652-6H13.652zm0 4h48.696C63.178 4 64 4.78 64 6s-.822 2-1.652 2H52a2 2 0 1 0 0 4h8.969l9.355 13.098C71.866 27.503 72 28.838 72 32v70.438c0 .546-.124 1.074-.332 1.562H4.156A3.971 3.971 0 0 1 4 102.953V32.172c0-3.42-.052-4.56 1.645-7.027.003-.005 0-.008.003-.012L15.031 12H44a2.002 2.002 0 0 0 1.873-2.772A2 2 0 0 0 44 8H14.305a2.002 2.002 0 0 0-.278-.023 2 2 0 0 0-.3.023h-.075C12.822 8 12 7.22 12 6s.822-2 1.652-2zM12 20c-1.2 0-2 .8-2 2v4c0 1.2.8 2 2 2s2-.8 2-2v-4c0-1.2-.8-2-2-2zm10 0c-1.2 0-2 .8-2 2v4c0 1.2.8 2 2 2s2-.8 2-2v-4c0-1.2-.8-2-2-2zm10 0c-1.2 0-2 .8-2 2v4c0 1.2.8 2 2 2s2-.8 2-2v-4c0-1.2-.8-2-2-2zm12 0c-1.2 0-2 .8-2 2v4c0 1.2.8 2 2 2s2-.8 2-2v-4c0-1.2-.8-2-2-2zm10 0c-1.2 0-2 .8-2 2v4c0 1.2.8 2 2 2s2-.8 2-2v-4c0-1.2-.8-2-2-2zm10 0c-1.2 0-2 .8-2 2v4c0 1.2.8 2 2 2s2-.8 2-2v-4c0-1.2-.8-2-2-2zM34 46a2 2 0 0 0-1.703.953l-16 26A2 2 0 0 0 18 76h9.223l-3.121 9.367a1.999 1.999 0 0 0 3.007 2.297l30-20A2 2 0 0 0 56 64h-9.914l11.492-14.773A2 2 0 0 0 56 46H34zm1.117 4h16.797L40.422 64.773A2 2 0 0 0 42 68h7.395L29.742 81.102l2.156-6.47A2 2 0 0 0 30 72h-8.422l13.54-22zM7.07 108H68.63l-3.797 4.672c-.696.853-1.689 1.324-2.726 1.324H13.8c-1.008 0-1.97-.44-2.66-1.246L7.07 108z" fill="#fff"/></svg>