<svg width="40" height="40" fill="none" xmlns="http://www.w3.org/2000/svg"><path d="M12.5 27.916c0-4.293 1.768-8.18 4.61-10.977a12.007 12.007 0 0 0-5.026-1.105C5.41 15.834 0 21.244 0 27.916 0 34.59 5.41 40 12.084 40c1.796 0 3.494-.402 5.026-1.105a15.366 15.366 0 0 1-4.61-10.979z" fill="url(#paint0_linear)"/><path d="M27.916 27.5c-4.293 0-8.18-1.767-10.977-4.611a12.02 12.02 0 0 0-1.105 5.027C15.834 34.59 21.244 40 27.916 40 34.59 40 40 34.59 40 27.916c0-1.797-.402-3.494-1.105-5.027A15.361 15.361 0 0 1 27.916 27.5z" fill="url(#paint1_linear)"/><path d="M27.916 0c-1.797 0-3.494.402-5.027 1.105A15.361 15.361 0 0 1 27.5 12.084c0 4.293-1.767 8.18-4.611 10.977a12.02 12.02 0 0 0 5.027 1.105C34.59 24.166 40 18.756 40 12.084 40 5.41 34.59 0 27.916 0z" fill="url(#paint2_linear)"/><path d="M12.084 12.5c4.293 0 8.18 1.768 10.977 4.61a12.007 12.007 0 0 0 1.105-5.026C24.166 5.41 18.756 0 12.084 0 5.41 0 0 5.41 0 12.084c0 1.796.402 3.494 1.105 5.026a15.366 15.366 0 0 1 10.979-4.61z" fill="url(#paint3_linear)"/><defs><linearGradient id="paint0_linear" x1="8.555" y1="15.834" x2="8.555" y2="40" gradientUnits="userSpaceOnUse"><stop stop-color="#9E00FF"/><stop offset="1" stop-color="#F09"/></linearGradient><linearGradient id="paint1_linear" x1="27.917" y1="22.889" x2="27.917" y2="40" gradientUnits="userSpaceOnUse"><stop stop-color="#9E00FF"/><stop offset="1" stop-color="#F09"/></linearGradient><linearGradient id="paint2_linear" x1="31.445" y1="0" x2="31.445" y2="24.166" gradientUnits="userSpaceOnUse"><stop stop-color="#9E00FF"/><stop offset="1" stop-color="#F09"/></linearGradient><linearGradient id="paint3_linear" x1="12.083" y1="0" x2="12.083" y2="17.11" gradientUnits="userSpaceOnUse"><stop stop-color="#9E00FF"/><stop offset="1" stop-color="#F09"/></linearGradient></defs></svg>