<svg width="200" height="40" fill="none" xmlns="http://www.w3.org/2000/svg"><path d="M47.779 28.846h1.774c.443 0 .685-.122.685-1.069V16.222c0-.987-.161-1.234-.685-1.234h-1.774v-3.084h3.145c1.976 0 3.79-.206 4.677-.411v3.948c1.21-2.632 3.144-4.072 6.128-4.072 3.145 0 5.16 1.48 5.846 4.565 1.048-2.96 3.144-4.564 6.45-4.564 4.274 0 6.492 2.425 6.492 7.813v8.593c0 .947.241 1.07.685 1.07h1.773v3.084H72.897v-3.084h1.491c.444 0 .686-.123.686-1.07v-8.264c0-3.085-1.008-4.442-3.225-4.442-2.5 0-3.75 2.016-3.75 5.84v6.867c0 .947.242 1.07.685 1.07h1.694v3.084h-9.999v-3.085h1.492c.444 0 .685-.122.685-1.069v-8.635c0-2.714-1.128-4.072-3.225-4.072-2.5 0-3.75 2.016-3.75 5.84v6.867c0 .947.243 1.07.686 1.07h1.572v3.084H47.78v-3.085zm41.805-5.88c.12 3.741 1.935 6.21 5.603 6.21 2.782 0 4.395-1.44 5.322-3.866l3.065 1.398c-1.089 3.208-3.75 5.758-8.83 5.758-7.136 0-10.724-4.4-10.724-10.569 0-6.25 4.152-10.527 10.2-10.527 6.209 0 9.635 3.948 9.635 10.568v1.028H89.584zm-.08-2.796h8.868c-.08-4.071-1.29-5.634-4.152-5.634-2.863 0-4.475 1.686-4.717 5.634zm23.542-4.688c1.25-2.755 3.507-4.112 6.652-4.112 4.153 0 6.37 2.467 6.37 7.484v8.923c0 .947.242 1.07.685 1.07h1.774v3.084h-10.16v-3.084h1.573c.443 0 .685-.123.685-1.07v-8.8c0-2.797-1.008-3.989-3.225-3.989-2.701 0-4.274 2.056-4.274 6.538v6.251c0 .947.241 1.07.685 1.07h1.573v3.084h-10.159v-3.085h1.773c.444 0 .686-.122.686-1.069V16.222c0-.987-.162-1.234-.686-1.234h-1.773v-3.084h3.144c1.975 0 3.789-.206 4.677-.411v3.989zm18.543 10.733V14.988h-2.661v-2.755s1.654-.123 1.532-.123c1.371-.247 2.258-.781 2.419-2.262l.403-3.618h3.75v5.675h3.91v3.084h-4.031v11.143c0 2.18.766 2.92 2.499 2.92.847 0 1.371-.165 1.855-.328v3.166c-.766.246-2.096.535-3.507.535-4.435 0-6.169-1.728-6.169-6.21zm11.045 2.631h1.814c.444 0 .645-.206.645-1.069V16.634c0-1.275-.201-1.646-.887-1.646h-1.572v-3.083h3.225c1.976 0 3.79-.206 4.717-.412v16.284c0 .863.202 1.07.646 1.07h1.693v3.083h-10.281v-3.084zm1.773-22.164c0-1.85 1.331-3.372 3.388-3.372 1.975 0 3.386 1.522 3.386 3.372 0 1.85-1.411 3.373-3.386 3.373-2.057-.001-3.388-1.522-3.388-3.373zm9.998 15.215c0-6.25 4.233-10.527 10.562-10.527 6.169 0 10.322 4.236 10.322 10.527 0 6.291-4.193 10.568-10.483 10.568-6.248 0-10.401-4.235-10.401-10.568zm15.441.288v-.535c0-4.812-1.572-6.99-4.959-6.99-3.427 0-4.999 2.178-4.999 6.99v.535c0 4.812 1.532 6.99 4.959 6.99 3.427 0 4.999-2.22 4.999-6.99zm14.673-6.703c1.25-2.755 3.507-4.112 6.652-4.112 4.153 0 6.37 2.467 6.37 7.484v8.923c0 .947.242 1.07.685 1.07H200v3.084h-10.159v-3.084h1.572c.443 0 .685-.123.685-1.07v-8.8c0-2.797-1.008-3.989-3.225-3.989-2.701 0-4.274 2.056-4.274 6.538v6.251c0 .947.242 1.07.685 1.07h1.573v3.084h-10.161v-3.085h1.774c.444 0 .686-.122.686-1.069V16.222c0-.987-.162-1.234-.686-1.234h-1.774v-3.084h3.145c1.976 0 3.79-.206 4.678-.411v3.989zM19.13 0C8.564 0 0 8.735 0 19.512c0 10.776 8.564 19.512 19.13 19.512 10.567 0 19.13-8.736 19.13-19.512C38.26 8.735 29.697 0 19.13 0zm8.581 32.172l-8.58-6.328-8.581 6.328 3.27-10.214-8.632-6.501h10.69l3.252-10.25 3.253 10.25h10.689l-8.632 6.501 3.271 10.214z" fill="#050505"/></svg>