<svg width="200" height="48" fill="none" xmlns="http://www.w3.org/2000/svg"><path fill-rule="evenodd" clip-rule="evenodd" d="M118.655 0l41.909 44.392s1.428 1.007 2.52-.168c1.092-1.175.252-2.35.252-2.35L118.655 0zM131.925 4.196L163.84 38.6s1.427 1.007 2.519-.167c1.092-1.175.252-2.35.252-2.35L131.925 4.196zM122.603 13.175l31.914 34.405s1.428 1.007 2.52-.167c1.092-1.175.252-2.35.252-2.35l-34.686-31.888zM143.143 7.804l22.297 24.037s.997.704 1.76-.117c.763-.82.176-1.642.176-1.642L143.143 7.805zM125.674 23.58l22.297 24.038s.997.703 1.76-.118c.763-.82.176-1.641.176-1.641L125.674 23.58zM154.601 13.007l10.106 10.927s.493.33.871-.055c.377-.384.087-.769.087-.769l-11.064-10.103zM131.253 34.657l10.106 10.928s.493.33.871-.055c.377-.385.087-.77.087-.77l-11.064-10.103zM174.286 17.975V47.44h6.666v-9.505h5l6.429 9.505H200l-7.143-10.218s6.343-2.507 6.343-9.307c0-9.6-8.724-9.94-8.724-9.94l-16.19-.001zm6.666 5.703v8.555h8.572s3.276 0 3.276-4.278c0-4.44-3.99-4.276-3.99-4.276h-7.858zM100.476 17.976V47.44h22.381v-5.703h-15.714V35.56h13.571v-5.703h-13.571v-6.183h15.714v-5.698h-22.381zM68.095 17.976v5.703h8.81V47.44h6.666V23.679h8.81v-5.703H68.095zM37.619 17.976V47.44H60v-5.703H44.286V35.56h13.571v-5.703H44.286v-6.183H60v-5.698H37.619zM0 17.975v29.467h6.662V28.905l8.095 11.881 8.1-11.881v18.536h6.667V17.975h-6.667l-8.1 12.119-8.095-12.119H0z" fill="#050505"/></svg>