<svg width="200" height="46" fill="none" xmlns="http://www.w3.org/2000/svg"><path d="M115.996 17.862h-7.873v.835c2.463 0 2.859.528 2.859 3.65v5.63c0 3.123-.396 3.695-2.859 3.695-1.89-.263-3.166-1.275-4.926-3.21l-2.023-2.2c2.727-.484 4.178-2.199 4.178-4.134 0-2.419-2.066-4.266-5.937-4.266h-7.74v.835c2.462 0 2.858.528 2.858 3.65v5.63c0 3.123-.396 3.695-2.859 3.695v.836h8.752v-.836c-2.462 0-2.858-.572-2.858-3.694v-1.583h.747l4.882 6.113h12.799c6.29 0 9.017-3.342 9.017-7.345s-2.727-7.301-9.017-7.301zM97.568 25.03v-5.849h1.803c1.979 0 2.859 1.364 2.859 2.947 0 1.54-.88 2.903-2.859 2.903h-1.803zm18.561 6.114h-.309c-1.583 0-1.803-.395-1.803-2.418v-9.544h2.112c4.574 0 5.409 3.342 5.409 5.937 0 2.683-.836 6.026-5.409 6.026zM67.177 26.66l3.035-8.973c.88-2.595.484-3.343-2.33-3.343v-.88h8.268v.88c-2.771 0-3.43.66-4.53 3.87l-5.015 15.043h-.571l-4.487-13.767-4.574 13.767h-.572L51.52 18.214c-1.056-3.211-1.76-3.87-4.31-3.87v-.88h9.763v.88c-2.595 0-3.299.615-2.375 3.342l2.947 8.973 4.442-13.196h.836l4.354 13.196zm14.953 6.42c-4.837 0-8.796-3.562-8.796-7.917 0-4.31 3.959-7.873 8.796-7.873 4.839 0 8.797 3.563 8.797 7.873 0 4.355-3.959 7.917-8.797 7.917zm0-14.425c-4.046 0-5.453 3.65-5.453 6.509 0 2.903 1.407 6.51 5.453 6.51 4.091 0 5.499-3.607 5.499-6.51 0-2.86-1.408-6.51-5.499-6.51zM135.876 31.628v.88h-10.072v-.88c2.947 0 3.474-.747 3.474-5.146v-7.037c0-4.399-.527-5.102-3.474-5.102v-.88h9.104c4.53 0 7.038 2.331 7.038 5.454 0 3.035-2.508 5.41-7.038 5.41h-2.507v2.154c0 4.4.528 5.147 3.475 5.147zm-.968-16.582h-2.507V22.7h2.507c2.463 0 3.606-1.716 3.606-3.783 0-2.11-1.143-3.87-3.606-3.87zm37.252 13.328l-.22.791c-.395 1.452-.88 1.98-4.002 1.98h-.616c-2.287 0-2.683-.528-2.683-3.651v-2.023c3.431 0 3.695.307 3.695 2.595h.836v-6.554h-.836c0 2.287-.264 2.595-3.695 2.595v-4.926h2.419c3.123 0 3.606.528 4.002 1.98l.221.835h.703l-.307-4.134h-12.931v.835c2.462 0 2.858.528 2.858 3.65v5.63c0 2.857-.336 3.577-2.278 3.68-1.845-.282-3.112-1.289-4.846-3.196l-2.023-2.198c2.727-.485 4.178-2.2 4.178-4.135 0-2.419-2.067-4.266-5.937-4.266h-7.741v.835c2.463 0 2.859.528 2.859 3.65v5.63c0 3.123-.396 3.695-2.859 3.695v.836h8.753v-.836c-2.463 0-2.859-.572-2.859-3.694v-1.583h.747l4.882 6.113h18.077l.264-4.134h-.661zm-23.31-3.344v-5.849h1.803c1.98 0 2.86 1.364 2.86 2.947 0 1.54-.88 2.903-2.86 2.903h-1.803zm32.238 8.05c-1.759 0-3.298-.924-3.958-1.496-.22.22-.616.88-.703 1.495h-.836V27.01h.879c.353 2.903 2.375 4.618 4.97 4.618 1.408 0 2.551-.791 2.551-2.11 0-1.144-1.011-2.024-2.814-2.86l-2.507-1.187c-1.76-.836-3.079-2.288-3.079-4.223 0-2.11 1.979-3.914 4.706-3.914 1.451 0 2.683.528 3.431 1.144.219-.176.439-.66.572-1.188h.835v5.19h-.924c-.308-2.067-1.451-3.783-3.782-3.783-1.231 0-2.375.704-2.375 1.804 0 1.143.923 1.759 3.035 2.727l2.418 1.187c2.112 1.012 2.947 2.64 2.947 3.959 0 2.77-2.419 4.705-5.366 4.705zm13.547 0c-1.76 0-3.299-.924-3.959-1.496-.22.22-.615.88-.703 1.495h-.836V27.01h.88c.351 2.903 2.374 4.618 4.97 4.618 1.407 0 2.551-.791 2.551-2.11 0-1.144-1.012-2.024-2.815-2.86l-2.507-1.187c-1.76-.836-3.079-2.288-3.079-4.223 0-2.11 1.979-3.914 4.706-3.914 1.451 0 2.683.528 3.431 1.144.219-.176.439-.66.571-1.188h.836v5.19h-.924c-.308-2.067-1.451-3.783-3.782-3.783-1.231 0-2.375.704-2.375 1.804 0 1.143.923 1.759 3.035 2.727l2.418 1.187c2.112 1.012 2.947 2.64 2.947 3.959 0 2.77-2.419 4.705-5.365 4.705zM3.225 22.689c0 7.704 4.478 14.362 10.97 17.518L4.91 14.767a19.39 19.39 0 0 0-1.685 7.922zm32.605-.982c0-2.406-.864-4.072-1.606-5.369-.986-1.603-1.911-2.96-1.911-4.564 0-1.79 1.357-3.455 3.268-3.455.087 0 .169.011.253.016a19.393 19.393 0 0 0-13.144-5.11c-6.8 0-12.783 3.49-16.263 8.774.456.013.887.023 1.252.023 2.036 0 5.188-.247 5.188-.247 1.049-.062 1.173 1.48.124 1.603 0 0-1.054.124-2.227.186l7.088 21.083 4.26-12.775-3.033-8.309c-1.048-.062-2.041-.186-2.041-.186-1.05-.061-.926-1.665.123-1.603 0 0 3.214.247 5.127.247 2.035 0 5.187-.247 5.187-.247 1.05-.062 1.173 1.48.125 1.603 0 0-1.057.124-2.228.186l7.034 20.924 1.942-6.488c.841-2.692 1.482-4.626 1.482-6.292zM23.03 24.39l-5.84 16.97a19.463 19.463 0 0 0 11.962-.31 1.71 1.71 0 0 1-.138-.268L23.03 24.391zm16.738-11.04c.084.62.131 1.285.131 2 0 1.976-.369 4.196-1.48 6.973l-5.946 17.19c5.787-3.375 9.68-9.644 9.68-16.825 0-3.384-.865-6.566-2.385-9.339zM22.689 0C10.18 0 0 10.178 0 22.689c0 12.512 10.179 22.69 22.69 22.69 12.51 0 22.69-10.178 22.69-22.69C45.38 10.179 35.2 0 22.69 0zm0 44.339c-11.936 0-21.649-9.712-21.649-21.65 0-11.937 9.712-21.649 21.65-21.649 11.936 0 21.648 9.712 21.648 21.649 0 11.938-9.712 21.65-21.648 21.65z" fill="#050505"/></svg>